Coordinates																															
version=1																															
nRows=22																															
nColumns=32																															
inDegrees=yes																															
																															
"Units are S.I. units (second, meters, Newtons, ...)"																															
"If the header above contains a line with 'inDegrees', this indicates whether rotational values are in degrees (yes) or radians (no)."																															
																															
endheader																															
time	pelvis_tilt	pelvis_list	pelvis_rotation	pelvis_tx	pelvis_ty	pelvis_tz	hip_flexion_r	hip_adduction_r	hip_rotation_r	knee_angle_r	ankle_angle_r	subtalar_angle_r	mtp_angle_r	hip_flexion_l	hip_adduction_l	hip_rotation_l	knee_angle_l	ankle_angle_l	subtalar_angle_l	mtp_angle_l	lumbar_extension	lumbar_bending	lumbar_rotation	arm_flex_r	arm_add_r	arm_rot_r	elbow_flex_r	arm_flex_l	arm_add_l	arm_rot_l	elbow_flex_l
0.713071428	-1.227438454	6.712701398	-8.382639997	0.700632207	0.914267385	0.474486184	-1.821810009	-11.40668757	-2.382384788	57.23555836	-13.88580567	-13.08548347	-7.15675654	26.25468108	7.666529613	-3.188677355	32.72736221	9.993957027	-21.44068525	0.872281451	-4.0489366	-3.649908827	5.576930233	13.83075702	-15.33169022	0.190179295	52.69522746	-7.649386302	-11.91791373	14.66333152	18.32363414
0.723714286	-1.13921775	7.000983653	-8.586276183	0.70084783	0.916117758	0.473281064	0.456321488	-11.78597574	-2.081904043	60.65092153	-14.64335395	-14.05983709	-3.590451694	25.31769198	8.092120369	-3.564654448	32.87136381	10.19893691	-21.26804654	1.214580714	-4.085254501	-3.790300574	5.580383008	12.79768516	-15.07280988	0.320479194	51.16194418	-7.473069064	-11.66384778	14.6998996	18.34716164
0.734357143	-1.105376019	7.148806711	-8.712405052	0.700658107	0.918148224	0.472230259	2.754323626	-11.90766785	-1.715318894	63.68616272	-14.78884212	-14.71649683	-0.618308384	24.39398541	8.340032459	-3.91164277	32.95046071	10.43520494	-20.8326715	1.530000539	-4.127713362	-3.801418275	5.506713725	11.73280217	-14.81966226	0.454123633	49.52836932	-7.225866506	-11.41781267	14.69661831	18.48716875
0.745	-1.120004293	7.166399029	-8.752838939	0.700115825	0.920354959	0.471326169	5.034914058	-11.78701378	-1.32569923	66.29269901	-14.35869642	-15.09940273	1.641616882	23.46687075	8.428112069	-4.209755765	32.95419172	10.71373226	-20.16308153	1.810363403	-4.174646095	-3.695658349	5.347702468	10.64674179	-14.57502336	0.581418038	47.81575288	-6.913715159	-11.19188337	14.65267602	18.75140809
0.755642857	-1.176047011	7.069833093	-8.704462122	0.699272762	0.922726073	0.470556325	7.270282884	-11.45478879	-0.956132039	68.44114855	-13.42839889	-15.26010403	3.164560493	22.51972095	8.380204535	-4.444021339	32.86789003	11.03660382	-19.29509019	2.04555893	-4.224659448	-3.490481744	5.099539945	9.549492755	-14.34093786	0.693319351	46.04697472	-6.544545574	-10.9976494	14.56885085	19.14625325
0.766285714	-1.266279742	6.879027881	-8.569015485	0.69817576	0.92523894	0.469905386	9.442254444	-10.95280291	-0.644977806	70.11951582	-12.09773337	-15.24927916	4.008010816	21.53784134	8.223547926	-4.604405215	32.67499577	11.39915804	-18.26928686	2.229092072	-4.276335588	-3.206401613	4.762798954	8.450646172	-14.11843925	0.782379576	44.2455893	-6.127372803	-10.84561957	14.44749305	19.67662926
0.776928571	-1.384100923	6.615689485	-8.352560283	0.696864179	0.927859307	0.469357149	11.54138963	-10.32877857	-0.422432339	71.3302897	-10.4766583	-15.11067724	4.289254548	20.50989766	7.98625129	-4.685422441	32.35948151	11.79223016	-17.12865953	2.361332949	-4.328056159	-2.864983907	4.34215494	7.359596111	-13.90740658	0.843406917	42.43484349	-5.671364296	-10.74472832	14.2924615	20.34590991
0.787571428	-1.524035294	6.301485379	-8.064669614	0.695368745	0.930542283	0.468896298	13.56518164	-9.631344695	-0.308725334	72.08678023	-8.674393625	-14.87816912	4.156282275	19.42890419	7.695194442	-4.685448807	31.90833489	12.20413491	-15.91651911	2.448959431	-4.378002892	-2.487160891	3.845856346	6.285664312	-13.70660823	0.873693612	40.63680565	-5.184942072	-10.70200833	14.10897017	21.15583069
0.798214286	-1.681966327	5.956631286	-7.717496263	0.693711501	0.933234618	0.468509805	15.51580423	-8.905741206	-0.313659826	72.40930788	-6.79178295	-14.57518773	3.759145099	18.29275592	7.374486646	-4.605963393	31.3137504	12.62225795	-14.67467361	2.501817967	-4.424285555	-2.092016007	3.285040383	5.238146431	-13.51390021	0.872845413	38.87171484	-4.67498916	-10.72246179	13.90328026	22.10647809
0.808857143	-1.855134109	5.599023342	-7.324833504	0.691906597	0.935877673	0.468187925	17.39783834	-8.190738614	-0.437185341	72.32174944	-4.916267302	-14.2156281	3.228631203	17.10421873	7.044573061	-4.450911898	30.57456344	13.0342427	-13.44174955	2.529103903	-4.465121343	-1.696153032	2.672958279	4.226286589	-13.32653848	0.842268043	37.15766125	-4.146244537	-10.80917856	13.68215782	23.19643895
0.8195	-2.041954352	5.243925247	-6.901229442	0.6899617	0.938410622	0.467924782	19.21626655	-7.516964041	-0.670756069	71.84870258	-3.118806597	-13.80559398	2.66552644	15.87037223	6.721971116	-4.226267226	29.69667669	13.42883349	-12.25162547	2.536276946	-4.499003916	-1.313636407	2.024146174	3.259192033	-13.14156188	0.784396331	35.51063331	-3.600928987	-10.96370254	13.45209213	24.42313702
0.830142857	-2.241766966	4.904017789	-6.461195529	0.687879637	0.940773475	0.467718608	20.97493937	-6.906332343	-0.99912813	71.01335329	-1.452173883	-13.34572986	2.138294283	14.6017297	6.41942193	-3.939750227	28.69266405	13.79649627	-11.13208043	2.523368027	-4.524822069	-0.956268971	1.35360616	2.345706758	-12.95617478	0.701853248	33.94481575	-3.038561159	-11.18652872	13.21843212	25.78325396
0.840785714	-2.45460714	4.589606068	-6.018534068	0.685659971	0.942909607	0.46757164	22.67565782	-6.372256839	-1.402339137	69.83607302	0.04957502	-12.83401678	1.685895418	13.31124939	6.146250512	-3.60061216	27.58077299	14.12993154	-10.10385701	2.48503109	-4.541900057	-0.633958137	0.676053276	1.494261395	-12.76805963	0.596729325	32.47300407	-2.45593507	-11.4775996	12.98464104	27.27310606
0.851428571	-2.681019676	4.308848174	-5.585800637	0.68330042	0.944767642	0.467489715	24.31787134	-5.920386063	-1.857643675	68.33376997	1.37021657	-12.26857027	1.323318894	12.01333323	5.908801253	-3.219389218	26.38351899	14.42455828	-9.180251695	2.412193055	-4.549970772	-0.355012043	5.27E-03	0.712692146	-12.57558582	0.470095298	31.10700825	-1.847242977	-11.83669278	12.75180075	28.8888568
0.862071428	-2.921875936	4.067934672	-5.173916629	0.680798189	0.94630272	0.467481593	25.89885913	-5.549681555	-2.341194884	66.52002246	2.508631617	-11.64967789	1.048256754	10.72281627	5.710874943	-2.807568552	25.12605334	14.67897891	-8.367244281	2.294648841	-4.549126376	-0.126292257	-0.646388076	0.008003066	-12.37791195	0.321793924	29.85792301	-1.204340701	-12.26360959	12.51843485	30.62646255
0.872714285	-3.17815004	3.871188376	-4.791923831	0.678151393	0.947477256	0.467558017	27.41419936	-5.253731336	-2.829443331	64.40593258	3.474547704	-10.98069975	0.847697605	9.453925203	5.554118275	-2.377143112	23.83443471	14.89530559	-7.664100488	2.123701406	-4.539780642	0.046805025	-1.268344821	-0.613941419	-12.17499296	0.150524382	28.73617597	-0.517183256	-12.75810671	12.2806959	32.4813179
0.883357143	-3.450633511	3.721074268	-4.446841278	0.675360688	0.948261385	0.467730531	28.85830739	-5.022207783	-3.30037134	62.00152965	4.283925199	-10.26795113	0.703413186	8.219211041	5.438318743	-1.940068409	22.53393366	15.07916846	-7.064285245	1.893876174	-4.522657266	0.160538958	-1.852016248	-1.148783455	-11.96751398	-0.045806673	27.75131656	0.225529167	-13.31956362	12.03292184	34.44766121
0.894	-3.739596509	3.61812572	-4.143579897	0.672431136	0.948633263	0.468010134	30.22489507	-4.842354398	-3.734662741	59.31754274	4.955097883	-9.519857642	0.595818296	7.028516178	5.36157456	-1.507645951	21.24752505	15.23930351	-6.556521141	1.603102822	-4.498803233	0.213156739	-2.390959189	-1.594061933	-11.7567774	-0.269542149	26.91157717	1.035470655	-13.94644511	11.7685072	36.51787129
0.904642857	-4.044431657	3.560817525	-3.884894415	0.669374187	0.94857932	0.46840589	31.50730867	-4.700387879	-4.116844117	56.3673935	5.506292221	-8.745700533	0.506230636	5.88808533	5.320342325	-1.089883337	19.99471896	15.386684	-6.125899863	1.251323513	-4.469612175	0.205306971	-2.880966857	-1.949567185	-11.5445683	-0.522650235	26.22329092	1.923582059	-14.6356705	11.48098515	38.68181214
0.915285714	-4.363335005	3.545441026	-3.671378188	0.666209494	0.948094528	0.468923683	32.69880893	-4.582728665	-4.436371063	53.16931118	5.954467934	-7.954223997	0.41809534	4.799951382	5.30940847	-0.694919278	18.79084808	15.53327921	-5.755021804	0.838140525	-4.436832622	0.140437244	-3.320119018	-2.217606442	-11.33302523	-0.806154302	25.69026989	2.898800357	-15.38202501	11.16516508	40.92634301
0.925928571	-4.693094343	3.566064177	-3.501536395	0.662966226	0.947182619	0.4695653	33.79291392	-4.476991505	-4.688551683	49.74845148	6.314997696	-7.152337242	0.317988527	3.761754067	5.321868785	-0.328635503	17.64692195	15.69060876	-5.425184506	0.36048344	-4.402530252	0.025042973	-3.708755092	-2.403121173	-11.12453979	-1.119761616	25.31326524	3.966746785	-16.17776797	10.81813213	43.23509049
0.936571428	-5.029038234	3.614648565	-3.371973684	0.659683513	0.945856192	0.470328019	34.78387971	-4.372693378	-4.875153499	46.13877833	6.601752382	-6.344116289	0.196856532	2.767077486	5.349198254	5.46E-03	16.57006193	15.86826884	-5.117609815	-0.189033363	-4.368985133	-0.131342416	-4.049335908	-2.513618646	-10.92168593	-1.461759923	25.0896005	5.128516128	-17.01255193	10.43994506	45.58854661
